<?xml version="1.0" encoding="UTF-8"?>
<svg data-bbox="-0.3 5.35 498 589.89" xmlns="http://www.w3.org/2000/svg" viewBox="0 0 498 601" height="601mm" width="498mm" data-type="ugc">
    <g>
        <defs>
            <linearGradient gradientUnits="userSpaceOnUse" gradientTransform="matrix(6.72 0 0 6.72 399 -296)" y2="41.9" y1="41.9" x2="-68" x1="-142" id="1d138109-c4b4-4e37-8c32-18c8e581e3ad">
                <stop offset="0" stop-color="#1ec7eb"/>
                <stop offset="1" stop-opacity="0" stop-color="#1ec7eb"/>
            </linearGradient>
            <linearGradient gradientUnits="userSpaceOnUse" gradientTransform="matrix(8.21 0 0 11.2 506 -540)" y2="49.2" y1="49.2" x2="-69.8" x1="-94.9" id="6a542645-67e4-4c06-8b4c-f61cbfa5213f">
                <stop offset="0" stop-color="#1ec7eb"/>
                <stop offset="1" stop-opacity="0" stop-color="#1ec7eb"/>
            </linearGradient>
        </defs>
        <path fill="url(#1d138109-c4b4-4e37-8c32-18c8e581e3ad)" d="M-58.3-14.7a249 249 0 0 1-249 249 249 249 0 0 1-249-249 249 249 0 0 1 249-249 249 249 0 0 1 249 249z" transform="translate(556 316)"/>
        <path fill="#ffffff" d="M474.3 300.3a223 223 0 0 1-223 223 223 223 0 0 1-223-223 223 223 0 0 1 223-223 223 223 0 0 1 223 223z"/>
        <path fill="url(#6a542645-67e4-4c06-8b4c-f61cbfa5213f)" d="M-67-3.2v26.6h-206V-3.2h206z" transform="translate(556 316)"/>
        <g stroke-linejoin="round" stroke="#ffffff">
            <path stroke-width="13.2" d="m-766 53.2 38.7 249c25.7 32.8 49.8 0 49.8 0l40.4-249z" transform="matrix(1.18 0 0 1.05 1077 262.6)" fill="#ffffff"/>
            <path stroke-width="13.2" d="M-800-245c18.9 46.8 23.1 90.1 18.3 132h164c-3.35-44.1 4.3-88.2 21-132-67.2 7.85-135 6.41-203 0z" transform="matrix(1.18 0 0 1.05 1077 262.6)" fill="#ffffff"/>
            <path stroke-width="13.3" d="M-782-85.3c-5.24 44.8-4.17 67.1 14.7 113h132c21-40.3 23.4-62.4 16.9-113-54.9.604-106-.02-164 0z" transform="matrix(1.18 0 0 1.05 1077 262.6)" fill="#ffffff"/>
        </g>
        <path d="m287.58 311.32-120.36 24.885 2.313 12.81 164.02-33.915.698-3.738s-37.17.566-46.964-.01zm43.896 16.485-160.48 32.97 2.313 12.81 154.58-32.025zm-4.968 26.565-151.04 31.08 2.313 12.81 145.14-30.03zm-4.968 26.565-141.6 29.085 2.313 12.81 136.88-28.14zm-4.967 26.565-132.16 27.195 2.312 12.81 127.44-26.145zm-4.968 26.565-122.72 25.2 2.313 12.81 117.41-24.255zm-4.968 26.565-112.926 23.31 2.313 12.81 108.088-22.26zm-4.968 26.565L198.183 508.51l2.313 12.81 98.648-20.37zm-4.968 26.565-94.164 19.425 2.313 12.81 89.208-18.375zm-4.967 26.565-84.724 17.43 2.312 12.81 79.768-16.485zm-4.968 26.565-75.284 15.54 2.313 12.81 70.328-14.49z" fill="#ffffff"/>
        <path stroke-width="13.2" stroke-linejoin="round" stroke="#c1c1c1" fill="#c1c1c1" d="m186 319.6 38.7 249c25.7 32.8 49.8 0 49.8 0l40.4-249z"/>
        <path stroke-width="13.2" stroke-linejoin="round" stroke="#c1c1c1" d="M152 21.4c18.9 46.8 23.1 90.1 18.3 132h164c-3.35-44.1 4.3-88.2 21-132-67.2 7.85-135 6.41-203 0z" fill="#ffffff"/>
        <path stroke-width="13.3" stroke-linejoin="round" stroke="#c1c1c1" d="M170 181.4c-5.24 44.8-4.17 67.1 14.7 113h132c21-40.3 23.4-62.4 16.9-113-54.9.604-106-.02-164 0z" fill="#ffffff"/>
        <path d="m283.415 312.8-102.29 23.717 1.966 12.243 139.655-32.33.594-3.578s-31.535.541-40.015-.01zm37.365 15.74-135.945 31.535 1.966 12.243 131.705-30.475zm-4.213 25.361-127.73 29.68 1.966 12.243 123.755-28.62zm-4.214 25.36-119.78 27.825 1.966 12.243 115.805-26.765zm-4.214 25.361-111.83 25.943 1.967 12.243 107.59-24.963zm-4.213 25.36-103.88 24.089 1.966 12.243 99.64-23.108zm-4.214 25.361-95.93 22.233 1.967 12.243 91.69-21.253zm-4.213 25.36-87.98 20.379 1.966 12.243 83.74-19.398zm-4.214 25.361-79.765 18.523 1.967 12.243 75.79-17.543zm-4.213 25.36-71.815 16.669 1.966 12.243 67.84-15.714zm-4.214 25.361-63.865 14.814 1.967 12.242 59.625-13.859z" fill="#ffffff"/>
    </g>
</svg>
